#!OML:ASF F:\VICON\USERDATA\INSTALL\Justin_Nancy\Justin_Nancy.ASF
:FULLY-SPECIFIED
:DEGREES
1
root 0.837091 17.6536 -28.1514 -2.81427 0.70892 -7.4838
lowerback 6.19011 3.38789 5.76131
upperback 0.840555 5.03739 4.79043
thorax -2.53657 2.47457 1.32203
lowerneck -13.2793 -6.30037 -9.3712
upperneck 17.8145 -8.24766 7.84489
head 8.44981 -3.7896 3.21867
rclavicle 7.23079e-014 2.54444e-014
rhumerus -33.0681 14.885 -82.6954
rradius 131.68
rwrist -13.379
rhand -10.7185 30.2309
rfingers 7.12502
rthumb 15.2916 0.816197
lclavicle 7.23079e-014 2.54444e-014
lhumerus -76.6935 -3.06161 93.5656
lradius 102.891
lwrist 31.049
lhand -17.5145 7.26795
lfingers 7.12502
lthumb 8.73885 37.067
rfemur 14.5045 4.32761 30.2059
rtibia 50.5414
rfoot 10.9146 -15.0369
rtoes 5.1679
lfemur -28.6147 -5.75973 -12.4464
ltibia 18.9618
lfoot 12.6995 6.28175
ltoes -8.00043
2
root 0.833066 17.5927 -27.6232 -3.29143 0.328862 -7.60693
lowerback 6.38735 3.34081 5.60029
upperback 1.31248 4.94567 4.7836
thorax -2.17096 2.44237 1.41448
lowerneck -14.4219 -6.32403 -9.10979
upperneck 17.6101 -8.19095 7.67048
head 8.56246 -3.73531 3.09628
rclavicle 5.93372e-014 4.29375e-014
rhumerus -32.7981 15.5202 -83.2935
rradius 131.41
rwrist -12.0166
rhand -12.5276 30.7175
rfingers 7.12502
rthumb 13.5485 1.17825
lclavicle 5.93372e-014 4.29375e-014
lhumerus -76.2196 -2.55223 93.1205
lradius 104.142
lwrist 31.485
lhand -16.782 6.46831
lfingers 7.12502
lthumb 9.44568 36.2366
rfemur 13.8929 5.05441 30.3623
rtibia 54.2083
rfoot 10.2072 -15.7878
rtoes 2.0297
lfemur -28.1699 -4.591 -12.5406
ltibia 18.8405
lfoot 13.529 4.54672
ltoes -8.88853
3
root 0.831037 17.5175 -27.1042 -3.76178 0.0831679 -7.38095
lowerback 6.87806 3.28553 5.26223
upperback 1.73515 4.85383 4.52588
thorax -2.01253 2.4044 1.32518
lowerneck -16.1844 -6.36801 -8.67098
upperneck 17.9391 -8.2096 7.56158
head 8.96951 -3.67959 2.94612
rclavicle -3.47376e-014 -1.90833e-014
rhumerus -32.4526 15.6391 -84.0251
rradius 130.991
rwrist -11.8324
rhand -12.5111 30.2987
rfingers 7.12502
rthumb 13.5645 0.760508
lclavicle -3.47376e-014 -1.90833e-014
lhumerus -75.2369 -2.48652 92.6303
lradius 105.077
lwrist 31.9693
lhand -14.795 5.28678
lfingers 7.12502
lthumb 11.3625 34.959
rfemur 12.962 5.44548 29.8803
rtibia 57.9952
rfoot 9.5762 -15.983
rtoes -9.13813
lfemur -28.018 -3.86504 -12.9158
ltibia 19.7296
lfoot 13.8614 2.69078
ltoes -10.8827
4
root 0.822778 17.4549 -26.5845 -4.32911 0.00499032 -6.93284
lowerback 7.40453 3.24173 4.5662
upperback 1.64993 4.78435 4.19477
thorax -2.42342 2.3646 1.33552
lowerneck -15.5041 -6.2699 -8.11476
upperneck 17.5811 -8.22126 7.46199
head 8.6961 -3.67778 2.83472
rclavicle -1.16786e-015 -1.66979e-014
rhumerus -33.418 15.2859 -85.0465
rradius 130.706
rwrist -12.8398
rhand -11.1477 28.8059
rfingers 7.12502
rthumb 14.8782 -0.639845
lclavicle -1.16786e-015 -1.66979e-014
lhumerus -75.3152 -2.84552 92.1881
lradius 106.134
lwrist 32.5842
lhand -13.7733 5.12296
lfingers 7.12502
lthumb 12.3477 34.7383
rfemur 11.8867 5.55502 29.0132
rtibia 61.6268
rfoot 8.65605 -16.2061
rtoes 7.05176
lfemur -27.6498 -2.86054 -13.7052
ltibia 21.0365
lfoot 14.3732 0.246472
ltoes -9.67037
5
root 0.805408 17.3507 -26.0775 -4.96714 0.163436 -6.71577
lowerback 7.98067 3.1774 4.05243
upperback 0.928824 4.73403 3.89164
thorax -3.50967 2.32018 1.25072
lowerneck -11.7431 -5.99723 -7.65991
upperneck 16.091 -8.13935 7.59398
head 7.5071 -3.70548 2.9038
rclavicle -8.34802e-014 -3.81667e-014
rhumerus -36.3307 14.8804 -86.7805
rradius 131.296
rwrist -12.9724
rhand -10.772 23.7518
rfingers 7.12502
rthumb 15.2401 -5.66682
lclavicle -8.34802e-014 -3.81667e-014
lhumerus -76.6381 -3.64924 91.9032
lradius 107.294
lwrist 33.3712
lhand -13.2547 5.26795
lfingers 7.12502
lthumb 12.8477 34.8525
rfemur 11.1842 4.92916 28.1628
rtibia 65.1397
rfoot 7.35705 -15.9943
rtoes 7.0932
lfemur -27.3592 -1.97962 -14.2719
ltibia 22.9364
lfoot 14.0965 -1.9265
ltoes -4.83352
6
root 0.797695 17.2179 -25.575 -5.58177 0.156135 -6.64949
lowerback 8.48878 3.18271 3.94044
upperback 1.23288 4.73597 3.62919
thorax -3.46271 2.32275 1.02055
lowerneck -12.2308 -6.07977 -7.37368
upperneck 15.8776 -8.2858 7.71145
head 7.52868 -3.73814 2.86687
rclavicle 4.07012e-014 4.17448e-014
rhumerus -36.9212 14.0521 -87.5842
rradius 130.246
rwrist -11.569
rhand -10.7136 27.8628
rfingers 7.12502
rthumb 15.2964 -1.5515
lclavicle 4.07012e-014 4.17448e-014
lhumerus -75.3534 -4.64079 91.7949
lradius 107.95
lwrist 34.0745
lhand -13.7892 5.35944
lfingers 7.12502
lthumb 12.3323 34.9757
rfemur 10.04 4.34992 27.3051
rtibia 68.7106
rfoot 6.10656 -15.8587
rtoes 7.61929
lfemur -27.2465 -1.60775 -14.4714
ltibia 25.571
lfoot 11.8276 -2.474
ltoes -1.91454
7
root 0.804279 17.1111 -25.0719 -6.18602 -0.0484715 -6.20174
lowerback 8.91937 2.67283 3.14591
upperback 1.62739 4.00022 3.90528
thorax -3.37154 1.97179 1.81775
lowerneck -12.8732 -5.59792 -8.67854
upperneck 16.0996 -7.35887 7.88571
head 7.69732 -3.34325 3.232
rclavicle 2.91841e-014 9.93923e-015
rhumerus -37.6784 15.9352 -88.4364
rradius 129.05
rwrist -11.0954
rhand -12.469 28.2045
rfingers 7.12502
rthumb 13.605 -1.33089
lclavicle 2.91841e-014 9.93923e-015
lhumerus -73.98 -3.3842 91.9933
lradius 108.563
lwrist 34.6199
lhand -15.1152 5.61933
lfingers 7.12502
lthumb 11.0537 35.3083
rfemur 8.54076 4.03037 25.9249
rtibia 72.1609
rfoot 5.17147 -15.7797
rtoes 8.18896
lfemur -27.056 -1.33321 -15.0503
ltibia 28.8002
lfoot 7.97003 -3.12593
ltoes -2.6924
